<svg width="26" height="61" viewBox="0 0 26 61" fill="none" xmlns="http://www.w3.org/2000/svg">
<path d="M18.0709 13.5421L12.8563 3.35626L7.49594 13.8266C10.9493 14.8676 14.6637 14.7625 18.0709 13.5421Z" stroke="black" stroke-width="2.5" stroke-miterlimit="10"/>
<path d="M9.17957 37.4375V58.0737" stroke="black" stroke-width="2.5" stroke-miterlimit="10" stroke-linejoin="round"/>
<path d="M16.82 37.4375V58.0737" stroke="black" stroke-width="2.5" stroke-miterlimit="10" stroke-linejoin="round"/>
<path d="M24.3165 60.6438V33.2759C23.7015 33.6319 22.9433 33.8675 21.9862 33.8675C17.5789 33.8675 17.3873 29.0477 17.3873 29.0477C17.3873 29.0477 17.0041 33.8675 12.5977 33.8675C8.19049 33.8675 7.99967 29.0477 7.99967 29.0477C7.99967 29.0477 7.61564 33.8675 3.2101 33.8675C2.49712 33.8675 1.90556 33.7319 1.396 33.5206V60.6438" stroke="black" stroke-width="2.5" stroke-miterlimit="10"/>
<path d="M12.5977 33.8674C17.0041 33.8674 17.3873 29.0477 17.3873 29.0477C17.3873 29.0477 17.5789 33.8674 21.9862 33.8674C22.9433 33.8674 23.7015 33.6319 24.3165 33.2759V29.369V29.0477V25.7412L18.0709 13.5421C14.6637 14.7625 10.9493 14.8676 7.49594 13.8266L1.396 25.7412V29.0477V33.5206C1.90556 33.7319 2.49712 33.8674 3.2101 33.8674" stroke="black" stroke-width="2.5" stroke-miterlimit="10"/>
</svg>
