<svg width="47" height="54" viewBox="0 0 47 54" fill="none" xmlns="http://www.w3.org/2000/svg">
<path d="M13.649 22.9572V32.5783C13.649 34.647 15.3259 36.3242 17.3949 36.3242H30.3183C32.3873 36.3242 34.0642 34.647 34.0642 32.5783V22.9572H13.649Z" stroke="black" stroke-width="2.5" stroke-miterlimit="10"/>
<path d="M17.3948 42.2225V46.9667C17.3948 47.9869 18.479 48.814 19.8179 48.814H28.176C29.5141 48.814 30.5991 47.9869 30.5991 46.9667V42.2225H17.3948Z" stroke="black" stroke-width="2.5" stroke-miterlimit="10"/>
<path d="M23.8565 5.47396C23.8565 3.61203 22.3472 2.10266 20.4852 2.10266C18.6232 2.10266 17.1139 3.61203 17.1139 5.47396V22.9572H23.8565V5.47396Z" stroke="black" stroke-width="2.5" stroke-miterlimit="10"/>
<path d="M30.5991 22.9572V5.47396C30.5991 3.61203 29.0897 2.10266 27.2277 2.10266C25.3657 2.10266 23.8564 3.61203 23.8564 5.47396V22.9572H30.5991Z" stroke="black" stroke-width="2.5" stroke-miterlimit="10"/>
<path d="M20.1107 26.9675V32.1774" stroke="black" stroke-width="2.5" stroke-miterlimit="10"/>
<path d="M23.8566 27.1043V32.3142" stroke="black" stroke-width="2.5" stroke-miterlimit="10"/>
<path d="M27.6025 27.1043V32.3142" stroke="black" stroke-width="2.5" stroke-miterlimit="10"/>
<path d="M30.5991 36.3242H17.3948V42.2225H30.5991V36.3242Z" stroke="black" stroke-width="2.5" stroke-miterlimit="10"/>
<path d="M23.997 48.814V53.8973" stroke="black" stroke-width="2.5" stroke-miterlimit="10"/>
<path d="M12.7726 44.1518C6.45362 40.5537 2.19266 33.7577 2.19266 25.9659C2.19266 18.2839 6.33434 11.5688 12.507 7.93262" stroke="black" stroke-width="2.5" stroke-miterlimit="10"/>
<path d="M34.9538 7.78668C41.2648 11.3873 45.5199 18.1797 45.5199 25.9659C45.5199 33.7591 41.2574 40.557 34.9362 44.1543" stroke="black" stroke-width="2.5" stroke-miterlimit="10"/>
</svg>
