<svg width="56" height="51" viewBox="0 0 56 51" fill="none" xmlns="http://www.w3.org/2000/svg">
<path d="M10.1971 41.9194C12.0953 46.3635 16.5401 49.4823 21.7191 49.4823H23.34C24.9354 49.4823 26.4544 49.1755 27.8558 48.6364C29.2589 49.1755 30.778 49.4823 32.3723 49.4823H33.9928C39.0616 49.4823 43.4267 46.4952 45.3905 42.2016" stroke="black" stroke-width="2.5" stroke-miterlimit="10" stroke-linejoin="round"/>
<path d="M46.4982 25.1743C46.4982 18.3344 40.8983 12.7896 33.9928 12.7896H32.3723C30.778 12.7896 29.2589 13.0977 27.8558 13.6361C26.4544 13.0977 24.9353 12.7896 23.34 12.7896H21.7191C14.8134 12.7896 9.21448 18.3344 9.21448 25.1743" stroke="black" stroke-width="2.5" stroke-miterlimit="10" stroke-linejoin="round"/>
<path d="M19.5347 17.1943C17.1123 18.3464 15.1475 20.523 14.0215 23.2598" stroke="black" stroke-width="2.5" stroke-miterlimit="10"/>
<path d="M27.8559 13.6361C27.8559 13.6361 26.0189 5.7382 32.0455 2.0437" stroke="black" stroke-width="2.5" stroke-miterlimit="10" stroke-linejoin="round"/>
<path d="M54.2951 27.1356H1.41733V39.5083H54.2951V27.1356Z" stroke="black" stroke-width="2.5" stroke-miterlimit="10" stroke-linecap="round" stroke-linejoin="round"/>
<path d="M9.70813 27.1356V34.1101" stroke="black" stroke-width="2.5" stroke-miterlimit="10" stroke-linejoin="round"/>
<path d="M21.8934 27.1356V34.1101" stroke="black" stroke-width="2.5" stroke-miterlimit="10" stroke-linejoin="round"/>
<path d="M33.8554 27.1356V34.1101" stroke="black" stroke-width="2.5" stroke-miterlimit="10" stroke-linejoin="round"/>
<path d="M46.041 27.1356V34.1101" stroke="black" stroke-width="2.5" stroke-miterlimit="10" stroke-linejoin="round"/>
<path d="M16.0292 27.1356V31.7853" stroke="black" stroke-width="2.5" stroke-miterlimit="10" stroke-linejoin="round"/>
<path d="M27.7936 27.1356V31.7853" stroke="black" stroke-width="2.5" stroke-miterlimit="10" stroke-linejoin="round"/>
<path d="M39.8921 27.1356V31.7853" stroke="black" stroke-width="2.5" stroke-miterlimit="10" stroke-linejoin="round"/>
</svg>
