<svg width="58" height="34" viewBox="0 0 58 34" fill="none" xmlns="http://www.w3.org/2000/svg">
<path d="M50.4567 7.21228H1.29318V32.1879H50.4567V7.21228Z" stroke="black" stroke-width="2.5" stroke-miterlimit="10" stroke-linecap="round"/>
<path d="M7.81824 7.21227V1.81213H56.4195V26.0004H50.4567V7.21227H7.81824Z" stroke="black" stroke-width="2.5" stroke-miterlimit="10" stroke-linecap="round"/>
<path d="M45.2814 17.8158C42.3301 17.8158 39.9623 11.9612 39.9975 11.7123H10.9514C10.9956 11.9878 8.63199 17.8998 5.68082 17.9002V22.3438C8.63199 22.3441 11.0054 28.1414 10.9774 28.3629H39.9975C39.9623 28.114 42.3301 22.2594 45.2814 22.2594H45.2817V17.8158H45.2814Z" stroke="black" stroke-width="2.5" stroke-miterlimit="10"/>
<path d="M25.4814 24.9315C28.1842 24.9315 30.3753 22.7404 30.3753 20.0376C30.3753 17.3348 28.1842 15.1437 25.4814 15.1437C22.7786 15.1437 20.5875 17.3348 20.5875 20.0376C20.5875 22.7404 22.7786 24.9315 25.4814 24.9315Z" stroke="black" stroke-width="2.5" stroke-miterlimit="10"/>
</svg>
