<svg width="56" height="56" viewBox="0 0 56 56" fill="none" xmlns="http://www.w3.org/2000/svg">
<path d="M31.0244 46.4575C30.2862 45.4226 27.8867 44.2772 27.8792 42.8844C27.8703 41.4184 30.6814 40.5833 30.5681 38.7311C30.4502 36.8267 28.1447 36.4688 27.0367 35.3115C23.5589 31.6803 30.3205 29.8042 28.0925 25.8731C26.467 23.0068 20.8851 21.4201 19.1253 24.4057C17.9979 26.3206 20.0812 30.7027 16.8332 31.3357C14.8423 31.7242 14.207 29.4806 13.2004 28.2637C10.1715 24.604 6.58051 26.4786 3.79326 29.1264C3.22953 29.6618 2.58678 30.1256 1.89188 30.5252C2.45407 36.3376 4.9595 41.9956 9.41097 46.4471C15.2897 52.3259 23.2741 54.8043 30.9349 53.9007C31.178 53.0715 31.4256 52.2497 31.6791 51.4519C32.3606 49.3163 32.3651 48.3351 31.0244 46.4575Z" stroke="black" stroke-width="2.5" stroke-miterlimit="10" stroke-linejoin="round"/>
<path d="M9.41097 9.55309C3.67399 15.2901 1.16857 23.0337 1.89188 30.5253C2.58678 30.1256 3.22953 29.6618 3.79326 29.1264C6.58051 26.4786 10.1715 24.604 13.2004 28.2637C14.207 29.4806 14.8423 31.7242 16.8332 31.3358C20.0812 30.7027 17.9979 26.3206 19.1253 24.4057C20.8851 21.4201 26.467 23.0068 28.0925 25.8731C30.3205 29.8042 23.5589 31.6803 27.0367 35.3115C28.1447 36.4688 30.4502 36.8267 30.5681 38.7312C30.6814 40.5833 27.8703 41.4185 27.8792 42.8844C27.8867 44.2772 30.2862 45.4226 31.0244 46.4575C32.3651 48.3351 32.3606 49.3163 31.6791 51.4519C31.4256 52.2497 31.178 53.0715 30.9349 53.9007C36.5512 53.2355 41.9959 50.757 46.3057 46.4471C52.0935 40.6579 54.59 32.8256 53.7995 25.2721C52.6736 24.5325 51.5954 23.6377 50.4382 22.7765C45.3976 19.0258 47.9909 23.8211 44.0956 25.9074C42.9161 26.5398 39.0565 26.7978 37.7979 26.1878C35.4089 25.0305 35.6922 21.2218 34.5438 19.3666C31.3599 14.2186 26.3925 18.0975 22.433 15.6085C18.5571 13.1702 22.4852 11.1346 25.101 10.1198C28.5265 8.79031 32.8244 9.64335 33.4925 4.93158C33.6088 4.10909 33.5537 3.30676 33.4567 2.52382C25.0622 0.687718 15.9385 3.02608 9.41097 9.55309Z" stroke="black" stroke-width="2.5" stroke-miterlimit="10" stroke-linejoin="round"/>
<path d="M33.4926 4.93163C32.8245 9.64339 28.5265 8.79036 25.1011 10.1198C22.4853 11.1347 18.5572 13.1703 22.4331 15.6086C26.3925 18.0975 31.36 14.2186 34.5439 19.3666C35.6923 21.2218 35.4089 25.0306 37.798 26.1878C39.0566 26.7978 42.9161 26.5398 44.0957 25.9075C47.991 23.8211 45.3976 19.0258 50.4382 22.7765C51.5955 23.6377 52.6737 24.5325 53.7996 25.2722C53.2001 19.5321 50.7052 13.9525 46.3058 9.55314C42.6447 5.89202 38.1648 3.55442 33.4568 2.52386C33.5537 3.3068 33.6089 4.10914 33.4926 4.93163Z" stroke="black" stroke-width="2.5" stroke-miterlimit="10" stroke-linejoin="round"/>
</svg>
